
<svg width="180" height="30" viewBox="0 0 180 30" xmlns="http://www.w3.org/2000/svg"><path d="M33.891 28.95V3.11h17.53v5.96H40.549v5.324h8.133l-4.462 5.702h-3.671v8.855h-6.657zm54.74-26.234c7.187 0 13.035 5.986 13.035 13.345 0 7.358-5.848 13.345-13.036 13.345-7.186 0-13.034-5.987-13.034-13.345 0-7.359 5.848-13.345 13.034-13.345zm0 20.011c3.477 0 6.305-2.991 6.305-6.666 0-3.676-2.828-6.667-6.306-6.667-3.476 0-6.305 2.991-6.305 6.667 0 3.675 2.829 6.666 6.305 6.666zm26.494 6.223L126.87 2.868l11.754 26.082h-6.826l-8.476-3.046-1.37 3.046h-6.827zm13.764-6.581l-2.014-4.749-1.455 3.432 1.455.553 2.014.764zm-20.489-2.25V3.11h6.66v17.23c0 2.997-.78 5.18-2.382 6.734-1.488 1.516-3.682 2.33-6.324 2.33-3.12.036-5.265-.923-7.228-2.32l3.71-4.74c.045.032 1.401 1.04 2.96 1.03 1.563-.011 2.604-1.074 2.604-3.257zm-34.564-8.315c0 3.775-1.45 7.084-4.555 8.294l6.904 8.852h-7.032l-6.922-8.852 3.903-4.993c.43-.553 1.014-1.657 1.004-3.117-.087-2.068-1.473-3.103-3.621-3.103h-3.403V28.95h-6.62V3.11h10.32c3.476 0 6.1.92 7.766 2.612 1.442 1.435 2.256 3.47 2.256 6.082zM27.956 24.41c1.453.608 3.598 1.063 4.92.923l.248-.028s-.028.205-.185.402a.923.923 0 0 1-.112.158l-.002.002c0 .002-.002.003-.003.005h-.001l-.049.059c-.22.367-.215.565-.487.812-.039.035-.102.105-.102.147 0 .149-.097.196-.204.246-.059.027-.115.06-.171.093-.153.102.007.345-.141.44-.024.016-.059.017-.082.033-.06.04-.116.087-.174.13-.12.088-.237.181-.362.262-.11.07-.23.122-.341.189-.037.022-.057.07-.087.104-.062.074-.11.18-.19.213-.058.027-.13.084-.13.084-.097.073-.158.188-.355.199-.171 0-.232.034-.232.034s-.098.043-.148.067a1.26 1.26 0 0 1-.443.124c-.186.015-.392.036-.548.124a.913.913 0 0 1-.398.111l-.002.001c-.203.032-.33.031-.333.031a1.832 1.832 0 0 1-.174.009c-.127.022-.251.04-.373.055a1.46 1.46 0 0 1-.355.147.516.516 0 0 1-.08.027 1.689 1.689 0 0 1-.517.027 3.172 3.172 0 0 1-.27-.029c-.116-.006-.232-.045-.348-.077l-.026-.01a.576.576 0 0 0-.294-.033c-.059.004-.117.01-.176.001a35.838 35.838 0 0 1-1.056-.303c-1.046-.344-2.91-1.08-2.91-1.08-3.488-1.462-6.422-2.584-8.884-3.443L10.4 28.95H3.002l2.914-6.257C2.422 21.68 0 22.016 0 22.016l.092-.145.037-.063.002-.022c.004-.038-.02-.05.015-.079.024-.02.062-.074.083-.1a.134.134 0 0 0-.05-.011c-.086-.002-.11-.047-.099-.143.004-.037-.016-.082.018-.112.04-.034.086-.062.13-.09.024-.013.05-.02.074-.031.017-.007.04-.013.046-.026a.097.097 0 0 1 .018-.026l.006-.007a.205.205 0 0 1 .02-.013.471.471 0 0 1 .065-.02c.006-.002.012-.012.03-.027-.018-.008-.044-.023-.065-.035-.033-.018-.028-.038-.028-.038.009-.04-.023-.048-.006-.08.043-.023.088-.03.13-.056.017-.011.045-.036.04-.055-.004-.018-.011-.028-.04-.048l-.078-.066a.265.265 0 0 1-.031-.032l-.002-.002a.057.057 0 0 1-.013-.022l.046-.02c.092-.04.281-.138.412-.446l.244-.11c.021-.012.073-.03.099-.064-.126-.036-.186-.065-.205-.071.171-.18.395-.198.576-.345.015-.01.029-.022.042-.032l.072-.124.102-.008c.05-.027.097-.05.145-.074.095-.047.126-.183.254-.199a.354.354 0 0 0 .176-.058c.055-.04.038-.156.038-.156s.026-.042.221-.125c.182-.073.359-.15.534-.335.304-.08.474-.159.736-.198.006-.004.06-.076.08-.085.238-.094 1.86-.678 4.267-.488L16.55 0l11.407 24.41zm-13.14-4.96l4.181 1.548-2.348-5.47-1.833 3.923zm155.126-3.352L180 28.95h-8.155l-6.9-8.852v8.852h-6.656V3.11h6.656v8.51l6.1-8.51h8.2l-9.32 12.974.017.014zm-20.037-6.8c-3.527 0-6.395 3.034-6.395 6.763 0 3.728 2.868 6.763 6.395 6.763a6.06 6.06 0 0 0 2.328-.466l4.128 5.289a12.72 12.72 0 0 1-6.456 1.759c-7.187 0-13.034-5.987-13.034-13.345 0-7.359 5.847-13.345 13.034-13.345 2.351 0 4.559.643 6.465 1.764l-4.127 5.288a6.048 6.048 0 0 0-2.338-.47z" fill="#FFF" fill-rule="evenodd"/></svg>