
<svg width="950" height="850" viewBox="0 0 950 850" xmlns="http://www.w3.org/2000/svg"><title>shape</title><path d="M801.805 699.864c41.654 17.41 103.18 30.472 141.055 26.44.46-.053 7.14-.806 7.14-.806s-.8 5.899-5.293 11.544v-.011a26.456 26.456 0 0 1-3.234 4.541c-.021.01-.032.042-.053.064a2.942 2.942 0 0 1-.086.116c-.01.011-.021.011-.032.032a60.61 60.61 0 0 1-1.398 1.666c-6.286 10.536-6.168 16.212-13.98 23.3-1.1.997-2.903 3.002-2.903 4.201-.011 4.266-2.797 5.613-5.87 7.056-1.676.785-3.277 1.708-4.899 2.653-4.386 2.95.203 9.91-4.044 12.636-.694.446-1.676.478-2.348.945-1.708 1.167-3.32 2.482-4.995 3.724-3.447 2.525-6.798 5.188-10.384 7.501-3.138 2.005-6.606 3.49-9.776 5.411-1.056.647-1.643 2.006-2.486 3.003-1.783 2.111-3.17 5.135-5.465 6.1-1.643.765-3.692 2.399-3.692 2.399-2.807 2.09-4.547 5.4-10.214 5.708-4.898.032-6.648.976-6.648.976s-2.807 1.241-4.237 1.92c-3.96 1.857-8.09 3.194-12.7 3.555-5.358.424-11.26 1.029-15.731 3.575-3.746 2.122-7.556 2.908-11.409 3.183-.032 0-.042.011-.074.022-5.795.901-9.467.89-9.53.89a52.56 52.56 0 0 1-4.995.245 216.21 216.21 0 0 1-10.705 1.58c-2.508 1.582-6.318 3.12-10.18 4.224-.599.254-1.356.52-2.317.753-4.183 1.072-9.445 1.125-14.055.849-.256-.01-.512-.032-.747-.053a90.988 90.988 0 0 1-7.738-.838c-3.319-.16-6.66-1.284-9.989-2.218-.235-.095-.47-.191-.747-.286-4.514-1.57-7.673-1.104-8.43-.945-1.687.128-3.363.319-5.049.043-9.925-2.547-30.138-8.637-30.277-8.69-30.01-9.867-83.468-30.95-83.468-30.95-100.041-41.941-184.181-74.111-254.778-98.727l-56.776 122.812H86.082l83.553-179.385C69.455 621.572 0 631.206 0 631.206s2.316-3.586 2.636-4.138c.352-.573.704-1.2 1.078-1.815.01-.212.021-.413.043-.647.117-1.082-.587-1.4.427-2.238.704-.595 1.792-2.133 2.38-2.897a3.833 3.833 0 0 0-1.41-.308c-2.475-.063-3.201-1.326-2.86-4.085.118-1.082-.448-2.366.523-3.214 1.153-.987 2.466-1.783 3.746-2.579.651-.392 1.41-.573 2.103-.902.47-.201 1.131-.36 1.302-.742.16-.319.33-.552.533-.754.065-.063.118-.127.182-.19.17-.128.352-.255.534-.361.17-.085.352-.16.533-.223a13.66 13.66 0 0 1 1.323-.372c.203-.053.374-.318.886-.774-.512-.212-1.248-.658-1.857-.997-.939-.52-.79-1.093-.79-1.093.246-1.125-.672-1.358-.18-2.281 1.226-.669 2.507-.86 3.745-1.613.47-.318 1.26-1.04 1.153-1.57-.128-.531-.352-.796-1.164-1.37-1.632-1.357-1.632-1.357-2.24-1.888a7.596 7.596 0 0 1-.908-.933c-.021-.022-.032-.043-.053-.064v-.01c-.32-.415-.352-.616-.352-.616s.394-.138 1.312-.552c2.626-1.188 8.058-3.968 11.814-12.796l7.001-3.172c.609-.34 2.082-.87 2.829-1.814-3.618-1.05-5.337-1.868-5.88-2.059 4.92-5.146 11.322-5.655 16.53-9.867.417-.318.812-.647 1.206-.934l2.05-3.544 2.945-.233c1.398-.775 2.764-1.454 4.152-2.133 2.72-1.326 3.596-5.23 7.267-5.687 2.711-.307 4.216-1.029 5.059-1.665 1.58-1.136 1.078-4.478 1.078-4.478s.747-1.21 6.35-3.586c5.23-2.1 10.288-4.287 15.325-9.602 8.698-2.292 13.575-4.563 21.1-5.677.17-.116 1.728-2.185 2.272-2.44 6.852-2.684 53.34-19.427 122.4-13.984L474.67 0l327.136 699.864zm-376.88-142.197a105036.4 105036.4 0 0 1 119.925 44.361L477.508 445.2l-52.582 112.467z" fill="#141414" fill-rule="evenodd"/></svg>